<?xml version="1.0" encoding="UTF-8"?>
<svg width="700pt" height="700pt" version="1.1" viewBox="0 0 700 700" xmlns="http://www.w3.org/2000/svg">
 <path d="m255.32 525h189.35c16.895 0 33.098-6.7109 45.043-18.656s18.656-28.148 18.656-45.043v-304.68h16.625c6.2539 0 12.031-3.3359 15.156-8.75s3.125-12.086 0-17.5-8.9023-8.75-15.156-8.75h-53.043v-34.668c-0.019531-13.773-5.5-26.98-15.238-36.719s-22.945-15.219-36.719-15.238h-140c-13.773 0.019531-26.98 5.5-36.719 15.238s-15.219 22.945-15.238 36.719v34.668h-53.043c-6.2539 0-12.031 3.3359-15.156 8.75s-3.125 12.086 0 17.5 8.9023 8.75 15.156 8.75h16.625v304.68c0 16.895 6.7109 33.098 18.656 45.043s28.148 18.656 45.043 18.656zm57.926-104.12c0 6.2539-3.3359 12.031-8.75 15.156s-12.086 3.125-17.5 0-8.75-8.9023-8.75-15.156v-195.12c0-6.2539 3.3359-12.031 8.75-15.156s12.086-3.125 17.5 0 8.75 8.9023 8.75 15.156zm108.5 0c0 6.2539-3.3359 12.031-8.75 15.156s-12.086 3.125-17.5 0-8.75-8.9023-8.75-15.156v-195.12c0-6.2539 3.3359-12.031 8.75-15.156s12.086-3.125 17.5 0 8.75 8.9023 8.75 15.156zm-158.71-333.92c0.003906-4.4961 1.793-8.8047 4.9727-11.984 3.1797-3.1797 7.4883-4.9688 11.984-4.9727h140c4.4961 0.003906 8.8047 1.793 11.984 4.9727 3.1797 3.1797 4.9688 7.4883 4.9727 11.984v34.668h-173.91z"/>
</svg>
